<?xml version="1.0" encoding="UTF-8" standalone="no"?>
<svg
   xmlns:dc="http://purl.org/dc/elements/1.1/"
   xmlns:cc="http://creativecommons.org/ns#"
   xmlns:rdf="http://www.w3.org/1999/02/22-rdf-syntax-ns#"
   xmlns:svg="http://www.w3.org/2000/svg"
   xmlns="http://www.w3.org/2000/svg"
   xmlns:sodipodi="http://sodipodi.sourceforge.net/DTD/sodipodi-0.dtd"
   xmlns:inkscape="http://www.inkscape.org/namespaces/inkscape"
   width="40.17347mm"
   height="15.875mm"
   viewBox="0 0 40.17347 15.875"
   version="1.1"
   id="svg8"
   inkscape:version="1.0.2 (e86c8708, 2021-01-15)"
   sodipodi:docname="addon-install.svg">
  <defs
     id="defs2">
    <linearGradient
       id="a"
       x1="70.790001"
       x2="6.447"
       y1="12.39"
       y2="74.470001"
       gradientTransform="translate(-1.3,-0.004086)"
       gradientUnits="userSpaceOnUse">
      <stop
         stop-color="#fff44f"
         offset=".048"
         id="stop835" />
      <stop
         stop-color="#ffe847"
         offset=".111"
         id="stop837" />
      <stop
         stop-color="#ffc830"
         offset=".225"
         id="stop839" />
      <stop
         stop-color="#ff980e"
         offset=".368"
         id="stop841" />
      <stop
         stop-color="#ff8b16"
         offset=".401"
         id="stop843" />
      <stop
         stop-color="#ff672a"
         offset=".462"
         id="stop845" />
      <stop
         stop-color="#ff3647"
         offset=".534"
         id="stop847" />
      <stop
         stop-color="#e31587"
         offset=".705"
         id="stop849" />
    </linearGradient>
    <radialGradient
       id="b"
       cx="-7907"
       cy="-8515"
       r="80.800003"
       gradientTransform="translate(7974,8524)"
       gradientUnits="userSpaceOnUse">
      <stop
         stop-color="#ffbd4f"
         offset=".129"
         id="stop852" />
      <stop
         stop-color="#ffac31"
         offset=".186"
         id="stop854" />
      <stop
         stop-color="#ff9d17"
         offset=".247"
         id="stop856" />
      <stop
         stop-color="#ff980e"
         offset=".283"
         id="stop858" />
      <stop
         stop-color="#ff563b"
         offset=".403"
         id="stop860" />
      <stop
         stop-color="#ff3750"
         offset=".467"
         id="stop862" />
      <stop
         stop-color="#f5156c"
         offset=".71"
         id="stop864" />
      <stop
         stop-color="#eb0878"
         offset=".782"
         id="stop866" />
      <stop
         stop-color="#e50080"
         offset=".86"
         id="stop868" />
    </radialGradient>
    <radialGradient
       id="c"
       cx="-7937"
       cy="-8482"
       r="80.800003"
       gradientTransform="translate(7974,8524)"
       gradientUnits="userSpaceOnUse">
      <stop
         stop-color="#960e18"
         offset=".3"
         id="stop871" />
      <stop
         stop-color="#b11927"
         stop-opacity=".74"
         offset=".351"
         id="stop873" />
      <stop
         stop-color="#db293d"
         stop-opacity=".343"
         offset=".435"
         id="stop875" />
      <stop
         stop-color="#f5334b"
         stop-opacity=".094"
         offset=".497"
         id="stop877" />
      <stop
         stop-color="#ff3750"
         stop-opacity="0"
         offset=".53"
         id="stop879" />
    </radialGradient>
    <radialGradient
       id="d"
       cx="-7927"
       cy="-8533"
       r="58.529999"
       gradientTransform="translate(7974,8524)"
       gradientUnits="userSpaceOnUse">
      <stop
         stop-color="#fff44f"
         offset=".132"
         id="stop882" />
      <stop
         stop-color="#ffdc3e"
         offset=".252"
         id="stop884" />
      <stop
         stop-color="#ff9d12"
         offset=".506"
         id="stop886" />
      <stop
         stop-color="#ff980e"
         offset=".526"
         id="stop888" />
    </radialGradient>
    <radialGradient
       id="e"
       cx="-7946"
       cy="-8461"
       r="38.470001"
       gradientTransform="translate(7974,8524)"
       gradientUnits="userSpaceOnUse">
      <stop
         stop-color="#3a8ee6"
         offset=".353"
         id="stop891" />
      <stop
         stop-color="#5c79f0"
         offset=".472"
         id="stop893" />
      <stop
         stop-color="#9059ff"
         offset=".669"
         id="stop895" />
      <stop
         stop-color="#c139e6"
         offset="1"
         id="stop897" />
    </radialGradient>
    <radialGradient
       id="f"
       cx="-7936"
       cy="-8492"
       r="20.4"
       gradientTransform="matrix(0.972,-0.235,0.275,1.138,10090,7834)"
       gradientUnits="userSpaceOnUse">
      <stop
         stop-color="#9059ff"
         stop-opacity="0"
         offset=".206"
         id="stop900" />
      <stop
         stop-color="#8c4ff3"
         stop-opacity=".064"
         offset=".278"
         id="stop902" />
      <stop
         stop-color="#7716a8"
         stop-opacity=".45"
         offset=".747"
         id="stop904" />
      <stop
         stop-color="#6e008b"
         stop-opacity=".6"
         offset=".975"
         id="stop906" />
    </radialGradient>
    <radialGradient
       id="g"
       cx="-7938"
       cy="-8518"
       r="27.68"
       gradientTransform="translate(7974,8524)"
       gradientUnits="userSpaceOnUse">
      <stop
         stop-color="#ffe226"
         offset="0"
         id="stop909" />
      <stop
         stop-color="#ffdb27"
         offset=".121"
         id="stop911" />
      <stop
         stop-color="#ffc82a"
         offset=".295"
         id="stop913" />
      <stop
         stop-color="#ffa930"
         offset=".502"
         id="stop915" />
      <stop
         stop-color="#ff7e37"
         offset=".732"
         id="stop917" />
      <stop
         stop-color="#ff7139"
         offset=".792"
         id="stop919" />
    </radialGradient>
    <radialGradient
       id="h"
       cx="-7916"
       cy="-8536"
       r="118.1"
       gradientTransform="translate(7974,8524)"
       gradientUnits="userSpaceOnUse">
      <stop
         stop-color="#fff44f"
         offset=".113"
         id="stop922" />
      <stop
         stop-color="#ff980e"
         offset=".456"
         id="stop924" />
      <stop
         stop-color="#ff5634"
         offset=".622"
         id="stop926" />
      <stop
         stop-color="#ff3647"
         offset=".716"
         id="stop928" />
      <stop
         stop-color="#e31587"
         offset=".904"
         id="stop930" />
    </radialGradient>
    <radialGradient
       id="i"
       cx="-7927"
       cy="-8523"
       r="86.5"
       gradientTransform="matrix(0.105,0.995,-0.653,0.069,-4685,8470)"
       gradientUnits="userSpaceOnUse">
      <stop
         stop-color="#fff44f"
         offset="0"
         id="stop933" />
      <stop
         stop-color="#ffe847"
         offset=".06"
         id="stop935" />
      <stop
         stop-color="#ffc830"
         offset=".168"
         id="stop937" />
      <stop
         stop-color="#ff980e"
         offset=".304"
         id="stop939" />
      <stop
         stop-color="#ff8b16"
         offset=".356"
         id="stop941" />
      <stop
         stop-color="#ff672a"
         offset=".455"
         id="stop943" />
      <stop
         stop-color="#ff3647"
         offset=".57"
         id="stop945" />
      <stop
         stop-color="#e31587"
         offset=".737"
         id="stop947" />
    </radialGradient>
    <radialGradient
       id="j"
       cx="-7938"
       cy="-8508"
       r="73.720001"
       gradientTransform="translate(7974,8524)"
       gradientUnits="userSpaceOnUse">
      <stop
         stop-color="#fff44f"
         offset=".137"
         id="stop950" />
      <stop
         stop-color="#ff980e"
         offset=".48"
         id="stop952" />
      <stop
         stop-color="#ff5634"
         offset=".592"
         id="stop954" />
      <stop
         stop-color="#ff3647"
         offset=".655"
         id="stop956" />
      <stop
         stop-color="#e31587"
         offset=".904"
         id="stop958" />
    </radialGradient>
    <radialGradient
       id="k"
       cx="-7919"
       cy="-8504"
       r="80.690002"
       gradientTransform="translate(7974,8524)"
       gradientUnits="userSpaceOnUse">
      <stop
         stop-color="#fff44f"
         offset=".094"
         id="stop961" />
      <stop
         stop-color="#ffe141"
         offset=".231"
         id="stop963" />
      <stop
         stop-color="#ffaf1e"
         offset=".509"
         id="stop965" />
      <stop
         stop-color="#ff980e"
         offset=".626"
         id="stop967" />
    </radialGradient>
    <linearGradient
       id="l"
       x1="70.010002"
       x2="15.27"
       y1="12.06"
       y2="66.809998"
       gradientTransform="translate(-1.3,-0.004086)"
       gradientUnits="userSpaceOnUse">
      <stop
         stop-color="#fff44f"
         stop-opacity=".8"
         offset=".167"
         id="stop970" />
      <stop
         stop-color="#fff44f"
         stop-opacity=".634"
         offset=".266"
         id="stop972" />
      <stop
         stop-color="#fff44f"
         stop-opacity=".217"
         offset=".489"
         id="stop974" />
      <stop
         stop-color="#fff44f"
         stop-opacity="0"
         offset=".6"
         id="stop976" />
    </linearGradient>
    <filter
       style="color-interpolation-filters:sRGB"
       inkscape:label="Drop Shadow"
       id="filter1452">
      <feFlood
         flood-opacity="0.980392"
         flood-color="rgb(33,21,81)"
         result="flood"
         id="feFlood1442" />
      <feComposite
         in="flood"
         in2="SourceGraphic"
         operator="in"
         result="composite1"
         id="feComposite1444" />
      <feGaussianBlur
         in="composite1"
         stdDeviation="8"
         result="blur"
         id="feGaussianBlur1446" />
      <feOffset
         dx="0"
         dy="3.29341"
         result="offset"
         id="feOffset1448" />
      <feComposite
         in="SourceGraphic"
         in2="offset"
         operator="over"
         result="composite2"
         id="feComposite1450" />
    </filter>
  </defs>
  <sodipodi:namedview
     id="base"
     pagecolor="#ffffff"
     bordercolor="#666666"
     borderopacity="1.0"
     inkscape:pageopacity="0.0"
     inkscape:pageshadow="2"
     inkscape:zoom="1.6596774"
     inkscape:cx="246.37515"
     inkscape:cy="17.541348"
     inkscape:document-units="mm"
     inkscape:current-layer="layer1"
     inkscape:document-rotation="0"
     showgrid="false"
     fit-margin-top="0"
     fit-margin-left="0"
     fit-margin-right="0"
     fit-margin-bottom="0"
     inkscape:window-width="1818"
     inkscape:window-height="943"
     inkscape:window-x="0"
     inkscape:window-y="25"
     inkscape:window-maximized="0" />
  <metadata
     id="metadata5">
    <rdf:RDF>
      <cc:Work
         rdf:about="">
        <dc:format>image/svg+xml</dc:format>
        <dc:type
           rdf:resource="http://purl.org/dc/dcmitype/StillImage" />
        <dc:title></dc:title>
      </cc:Work>
    </rdf:RDF>
  </metadata>
  <g
     inkscape:label="Layer 1"
     inkscape:groupmode="layer"
     id="layer1"
     transform="translate(-107.92634,-147.1433)">
    <rect
       style="fill:#6364ff;fill-opacity:1;stroke-width:0.179234"
       id="rect1104"
       width="40.17347"
       height="15.875"
       x="107.92634"
       y="147.1433"
       ry="1.0583333" />
    <g
       transform="matrix(0.157096,0,0,0.157096,110.54997,148.80311)"
       id="g1005"
       style="filter:url(#filter1452)">
      <path
         d="m 74.62,26.83 c -1.684,-4.052 -5.1,-8.427 -7.775,-9.81 a 40.27,40.27 0 0 1 3.925,11.76 l 0.007,0.065 C 66.395,17.925 58.967,13.515 52.897,3.925 52.59,3.44 52.283,2.954 51.984,2.441 51.813,2.148 51.676,1.884 51.557,1.641 a 7.053,7.053 0 0 1 -0.578,-1.535 0.1,0.1 0 0 0 -0.088,-0.1 0.138,0.138 0 0 0 -0.073,0 c -0.005,0 -0.013,0.009 -0.019,0.011 -0.006,0.002 -0.019,0.011 -0.028,0.015 l 0.015,-0.026 c -9.735,5.7 -13.04,16.25 -13.34,21.53 a 19.39,19.39 0 0 0 -10.67,4.111 11.59,11.59 0 0 0 -1,-0.758 17.97,17.97 0 0 1 -0.109,-9.473 28.7,28.7 0 0 0 -9.329,7.21 H 16.32 c -1.536,-1.947 -1.428,-8.367 -1.34,-9.708 a 6.928,6.928 0 0 0 -1.294,0.687 28.22,28.22 0 0 0 -3.788,3.245 33.84,33.84 0 0 0 -3.623,4.347 v 0.006 -0.007 a 32.73,32.73 0 0 0 -5.2,11.74 l -0.052,0.256 c -0.073,0.341 -0.336,2.049 -0.381,2.42 0,0.029 -0.006,0.056 -0.009,0.085 A 36.94,36.94 0 0 0 0.004,41.04 v 0.2 a 38.76,38.76 0 0 0 76.95,6.554 c 0.065,-0.5 0.118,-0.995 0.176,-1.5 A 39.86,39.86 0 0 0 74.616,26.824 Z M 29.95,57.17 c 0.181,0.087 0.351,0.181 0.537,0.264 l 0.027,0.017 Q 30.232,57.316 29.95,57.17 Z m 8.878,-23.38 m 31.95,-4.934 v -0.037 l 0.007,0.041 z"
         fill="url(#a)"
         id="path981"
         style="fill:url(#a)" />
      <path
         d="m 74.62,26.83 c -1.684,-4.052 -5.1,-8.427 -7.775,-9.81 a 40.27,40.27 0 0 1 3.925,11.76 v 0.037 l 0.007,0.041 a 35.1,35.1 0 0 1 -1.206,26.16 c -4.442,9.531 -15.19,19.3 -32.02,18.82 -18.18,-0.515 -34.2,-14.01 -37.19,-31.68 -0.545,-2.787 0,-4.2 0.274,-6.465 a 28.88,28.88 0 0 0 -0.623,5.348 v 0.2 a 38.76,38.76 0 0 0 76.95,6.554 c 0.065,-0.5 0.118,-0.995 0.176,-1.5 a 39.86,39.86 0 0 0 -2.514,-19.47 z"
         fill="url(#b)"
         id="path983"
         style="fill:url(#b)" />
      <path
         d="m 74.62,26.83 c -1.684,-4.052 -5.1,-8.427 -7.775,-9.81 a 40.27,40.27 0 0 1 3.925,11.76 v 0.037 l 0.007,0.041 a 35.1,35.1 0 0 1 -1.206,26.16 c -4.442,9.531 -15.19,19.3 -32.02,18.82 -18.18,-0.515 -34.2,-14.01 -37.19,-31.68 -0.545,-2.787 0,-4.2 0.274,-6.465 a 28.88,28.88 0 0 0 -0.623,5.348 v 0.2 a 38.76,38.76 0 0 0 76.95,6.554 c 0.065,-0.5 0.118,-0.995 0.176,-1.5 a 39.86,39.86 0 0 0 -2.514,-19.47 z"
         fill="url(#c)"
         id="path985"
         style="fill:url(#c)" />
      <path
         d="m 55.78,31.38 c 0.084,0.059 0.162,0.118 0.241,0.177 a 21.1,21.1 0 0 0 -3.6,-4.695 C 40.371,14.812 49.264,0.742 50.763,0.022 L 50.778,0 c -9.735,5.7 -13.04,16.25 -13.34,21.53 0.452,-0.031 0.9,-0.069 1.362,-0.069 a 19.56,19.56 0 0 1 16.98,9.917 z"
         fill="url(#d)"
         id="path987"
         style="fill:url(#d)" />
      <path
         d="m 38.82,33.79 c -0.064,0.964 -3.47,4.289 -4.661,4.289 -11.02,0 -12.81,6.667 -12.81,6.667 0.488,5.614 4.4,10.24 9.129,12.68 0.216,0.112 0.435,0.213 0.654,0.312 q 0.569,0.252 1.138,0.466 a 17.24,17.24 0 0 0 5.043,0.973 c 19.32,0.906 23.06,-23.1 9.119,-30.07 a 13.38,13.38 0 0 1 9.345,2.269 19.56,19.56 0 0 0 -16.98,-9.917 c -0.46,0 -0.91,0.038 -1.362,0.069 a 19.39,19.39 0 0 0 -10.67,4.111 c 0.591,0.5 1.258,1.168 2.663,2.553 2.63,2.591 9.375,5.275 9.39,5.59 z"
         fill="url(#e)"
         id="path989"
         style="fill:url(#e)" />
      <path
         d="m 38.82,33.79 c -0.064,0.964 -3.47,4.289 -4.661,4.289 -11.02,0 -12.81,6.667 -12.81,6.667 0.488,5.614 4.4,10.24 9.129,12.68 0.216,0.112 0.435,0.213 0.654,0.312 q 0.569,0.252 1.138,0.466 a 17.24,17.24 0 0 0 5.043,0.973 c 19.32,0.906 23.06,-23.1 9.119,-30.07 a 13.38,13.38 0 0 1 9.345,2.269 19.56,19.56 0 0 0 -16.98,-9.917 c -0.46,0 -0.91,0.038 -1.362,0.069 a 19.39,19.39 0 0 0 -10.67,4.111 c 0.591,0.5 1.258,1.168 2.663,2.553 2.63,2.591 9.375,5.275 9.39,5.59 z"
         fill="url(#f)"
         id="path991"
         style="fill:url(#f)" />
      <path
         d="m 24.96,24.36 c 0.314,0.2 0.573,0.374 0.8,0.531 a 17.97,17.97 0 0 1 -0.109,-9.473 28.7,28.7 0 0 0 -9.329,7.21 c 0.189,-0.005 5.811,-0.106 8.638,1.732 z"
         fill="url(#g)"
         id="path993"
         style="fill:url(#g)" />
      <path
         d="m 0.354,42.16 c 2.991,17.67 19.01,31.17 37.19,31.68 16.83,0.476 27.58,-9.294 32.02,-18.82 A 35.1,35.1 0 0 0 70.77,28.86 v -0.037 c 0,-0.029 -0.006,-0.046 0,-0.037 l 0.007,0.065 c 1.375,8.977 -3.191,17.67 -10.33,23.56 l -0.022,0.05 c -13.91,11.33 -27.22,6.834 -29.91,5 Q 30.233,57.326 29.951,57.18 C 21.842,53.304 18.491,45.92 19.211,39.58 a 9.953,9.953 0 0 1 -9.181,-5.775 14.62,14.62 0 0 1 14.25,-0.572 19.3,19.3 0 0 0 14.55,0.572 c -0.015,-0.315 -6.76,-3 -9.39,-5.59 -1.405,-1.385 -2.072,-2.052 -2.663,-2.553 a 11.59,11.59 0 0 0 -1,-0.758 c -0.23,-0.157 -0.489,-0.327 -0.8,-0.531 -2.827,-1.838 -8.449,-1.737 -8.635,-1.732 h -0.018 c -1.536,-1.947 -1.428,-8.367 -1.34,-9.708 A 6.928,6.928 0 0 0 13.69,13.62 28.22,28.22 0 0 0 9.902,16.865 33.84,33.84 0 0 0 6.264,21.202 v 0.006 -0.007 a 32.73,32.73 0 0 0 -5.2,11.74 C 1.045,33.02 -0.332,39.04 0.347,42.162 Z"
         fill="url(#h)"
         id="path995"
         style="fill:url(#h)" />
      <path
         d="m 52.42,26.86 a 21.1,21.1 0 0 1 3.6,4.7 c 0.213,0.161 0.412,0.321 0.581,0.476 8.787,8.1 4.183,19.55 3.84,20.36 7.138,-5.881 11.7,-14.58 10.33,-23.56 C 66.387,17.906 58.951,13.496 52.891,3.906 52.584,3.421 52.277,2.935 51.978,2.422 51.807,2.129 51.67,1.865 51.551,1.622 a 7.053,7.053 0 0 1 -0.578,-1.535 0.1,0.1 0 0 0 -0.088,-0.1 0.138,0.138 0 0 0 -0.073,0 c -0.005,0 -0.013,0.009 -0.019,0.011 -0.006,0.002 -0.019,0.011 -0.028,0.015 -1.499,0.711 -10.39,14.79 1.66,26.83 z"
         fill="url(#i)"
         id="path997"
         style="fill:url(#i)" />
      <path
         d="M 56.6,32.04 C 56.431,31.885 56.232,31.725 56.019,31.564 55.94,31.505 55.862,31.446 55.778,31.387 a 13.38,13.38 0 0 0 -9.345,-2.269 c 13.94,6.97 10.2,30.97 -9.119,30.07 a 17.24,17.24 0 0 1 -5.043,-0.973 q -0.569,-0.213 -1.138,-0.466 c -0.219,-0.1 -0.438,-0.2 -0.654,-0.312 l 0.027,0.017 c 2.694,1.839 16,6.332 29.91,-5 l 0.022,-0.05 c 0.347,-0.81 4.951,-12.26 -3.84,-20.36 z"
         fill="url(#j)"
         id="path999"
         style="fill:url(#j)" />
      <path
         d="m 21.35,44.74 c 0,0 1.789,-6.667 12.81,-6.667 1.191,0 4.6,-3.325 4.661,-4.289 a 19.3,19.3 0 0 1 -14.55,-0.572 14.62,14.62 0 0 0 -14.25,0.572 9.953,9.953 0 0 0 9.181,5.775 c -0.718,6.337 2.632,13.72 10.74,17.6 0.181,0.087 0.351,0.181 0.537,0.264 -4.733,-2.445 -8.641,-7.069 -9.129,-12.68 z"
         fill="url(#k)"
         id="path1001"
         style="fill:url(#k)" />
      <path
         d="m 74.62,26.83 c -1.684,-4.052 -5.1,-8.427 -7.775,-9.81 a 40.27,40.27 0 0 1 3.925,11.76 l 0.007,0.065 C 66.395,17.925 58.967,13.515 52.897,3.925 52.59,3.44 52.283,2.954 51.984,2.441 51.813,2.148 51.676,1.884 51.557,1.641 a 7.053,7.053 0 0 1 -0.578,-1.535 0.1,0.1 0 0 0 -0.088,-0.1 0.138,0.138 0 0 0 -0.073,0 c -0.005,0 -0.013,0.009 -0.019,0.011 -0.006,0.002 -0.019,0.011 -0.028,0.015 l 0.015,-0.026 c -9.735,5.7 -13.04,16.25 -13.34,21.53 0.452,-0.031 0.9,-0.069 1.362,-0.069 a 19.56,19.56 0 0 1 16.98,9.917 13.38,13.38 0 0 0 -9.345,-2.269 c 13.94,6.97 10.2,30.97 -9.119,30.07 a 17.24,17.24 0 0 1 -5.043,-0.973 q -0.569,-0.213 -1.138,-0.466 c -0.219,-0.1 -0.438,-0.2 -0.654,-0.312 l 0.027,0.017 Q 30.234,57.316 29.952,57.17 c 0.181,0.087 0.351,0.181 0.537,0.264 -4.733,-2.446 -8.641,-7.07 -9.129,-12.68 0,0 1.789,-6.667 12.81,-6.667 1.191,0 4.6,-3.325 4.661,-4.289 -0.015,-0.315 -6.76,-3 -9.39,-5.59 -1.405,-1.385 -2.072,-2.052 -2.663,-2.553 a 11.59,11.59 0 0 0 -1,-0.758 17.97,17.97 0 0 1 -0.109,-9.473 28.7,28.7 0 0 0 -9.329,7.21 h -0.018 c -1.536,-1.947 -1.428,-8.367 -1.34,-9.708 A 6.928,6.928 0 0 0 13.688,13.613 28.22,28.22 0 0 0 9.9,16.858 33.84,33.84 0 0 0 6.277,21.205 v 0.006 -0.007 a 32.73,32.73 0 0 0 -5.2,11.74 L 1.025,33.2 c -0.073,0.341 -0.4,2.073 -0.447,2.445 a 45.09,45.09 0 0 0 -0.572,5.403 v 0.2 a 38.76,38.76 0 0 0 76.95,6.554 c 0.065,-0.5 0.118,-0.995 0.176,-1.5 a 39.86,39.86 0 0 0 -2.514,-19.47 z m -3.845,1.991 0.007,0.041 z"
         fill="url(#l)"
         id="path1003"
         style="fill:url(#l)" />
    </g>
    <path
       id="path1687"
       style="font-style:normal;font-variant:normal;font-weight:normal;font-stretch:normal;font-size:4.03226px;line-height:1.25;font-family:Avenir;-inkscape-font-specification:'Avenir, Normal';font-variant-ligatures:normal;font-variant-caps:normal;font-variant-numeric:normal;font-variant-east-asian:normal;fill:#ffffff;stroke-width:0.116596"
       d="m 128.10766,152.409 c -0.0783,0 -0.15464,0.011 -0.2293,0.0329 -0.0747,0.0219 -0.14224,0.0556 -0.20234,0.10117 -0.0583,0.0455 -0.10537,0.10269 -0.14177,0.17188 -0.0346,0.0692 -0.0518,0.15042 -0.0518,0.2433 0,0.0892 0.0136,0.16395 0.041,0.22404 0.0291,0.0583 0.0665,0.10732 0.11203,0.14738 0.0473,0.0382 0.1,0.0701 0.15822,0.0956 0.0601,0.0255 0.12118,0.0482 0.18309,0.0683 0.0637,0.02 0.12481,0.0402 0.18308,0.0602 0.0601,0.02 0.11271,0.0454 0.15823,0.0763 0.0473,0.0291 0.0847,0.0665 0.11202,0.11202 0.0291,0.0437 0.0438,0.0992 0.0438,0.16663 0,0.0564 -0.0127,0.10646 -0.0382,0.15018 -0.0255,0.0437 -0.0583,0.0811 -0.0984,0.11202 -0.0382,0.0291 -0.0821,0.0519 -0.13128,0.0683 -0.0492,0.0146 -0.0982,0.0221 -0.14737,0.0221 -0.10198,0 -0.19034,-0.0212 -0.26501,-0.063 -0.0747,-0.0437 -0.13281,-0.10086 -0.17468,-0.17188 l -0.17748,0.12848 c 0.0747,0.10197 0.16463,0.17571 0.27025,0.22124 0.10744,0.0437 0.2205,0.0655 0.33886,0.0655 0.0765,0 0.15184,-0.0126 0.2265,-0.0382 0.0765,-0.0255 0.14469,-0.0619 0.20479,-0.10922 0.0619,-0.0473 0.11132,-0.10584 0.14772,-0.17503 0.0382,-0.071 0.0574,-0.15029 0.0574,-0.2377 0,-0.11654 -0.0247,-0.20847 -0.0739,-0.27585 -0.0492,-0.0674 -0.11024,-0.12097 -0.18309,-0.16103 -0.0728,-0.0419 -0.15273,-0.0747 -0.24014,-0.0984 -0.0856,-0.0255 -0.16485,-0.0538 -0.23769,-0.0847 -0.0728,-0.031 -0.13392,-0.0699 -0.18309,-0.11728 -0.0492,-0.0492 -0.0739,-0.11772 -0.0739,-0.20513 0,-0.0601 0.012,-0.11172 0.0357,-0.15543 0.0237,-0.0455 0.0545,-0.0822 0.0928,-0.10957 0.0401,-0.0291 0.0846,-0.0499 0.13373,-0.0627 0.0492,-0.0146 0.0992,-0.0217 0.15018,-0.0217 0.16389,0 0.28863,0.0627 0.37422,0.18834 l 0.17223,-0.13408 c -0.0765,-0.0874 -0.15932,-0.14814 -0.24855,-0.18273 -0.0892,-0.0346 -0.18864,-0.0522 -0.2979,-0.0522 z m -3.38409,0.0494 v 1.93377 h 0.19638 v -1.93377 z m 0.72008,0 v 1.93377 h 0.19674 v -1.65511 h 0.005 l 1.15277,1.65511 h 0.24574 v -1.93377 h -0.19638 v 1.63901 h -0.006 l -1.15276,-1.63901 z m 3.4198,0 v 0.18029 h 0.64727 v 1.75348 h 0.19674 v -1.75348 h 0.64727 v -0.18029 z m 2.18476,0 -0.84121,1.93377 h 0.22929 l 0.2132,-0.50795 h 0.98893 l 0.21284,0.50795 h 0.22964 l -0.8412,-1.93377 z m 1.29349,0 v 1.93377 h 1.09816 v -0.18028 h -0.90142 v -1.75349 z m 1.36596,0 v 1.93377 h 1.09816 v -0.18028 h -0.90142 v -1.75349 z m 1.36561,0 v 1.93377 h 1.23188 v -0.18028 h -1.03514 v -0.73479 h 0.93678 v -0.18029 h -0.93678 v -0.65812 h 1.00259 v -0.18029 z m 1.62186,0 v 1.93377 h 0.19673 v -0.89862 h 0.32767 l 0.53,0.89862 h 0.24049 l -0.5573,-0.91752 c 0.16025,-0.0146 0.2824,-0.0675 0.36617,-0.15858 0.0856,-0.0929 0.12812,-0.20656 0.12812,-0.34132 0,-0.173 -0.0572,-0.30229 -0.17188,-0.38787 -0.1129,-0.0856 -0.26787,-0.12848 -0.46454,-0.12848 z m 0.19673,0.18029 h 0.34972 c 0.0874,0 0.16115,0.009 0.22124,0.0273 0.0619,0.0164 0.11098,0.0401 0.14738,0.0711 0.0364,0.031 0.0627,0.0674 0.0791,0.10922 0.0164,0.0401 0.0248,0.083 0.0248,0.12847 0,0.0474 -0.008,0.0919 -0.0248,0.13373 -0.0164,0.0401 -0.0427,0.0755 -0.0791,0.10642 -0.0364,0.0291 -0.0855,0.0529 -0.14738,0.0711 -0.0601,0.0182 -0.13383,0.0273 -0.22124,0.0273 h -0.34972 z m -5.74808,0.049 0.41798,1.01624 h -0.83841 z" />
    <path
       id="path1716"
       style="font-style:normal;font-variant:normal;font-weight:800;font-stretch:normal;font-size:5.03584px;line-height:1.25;font-family:Avenir;-inkscape-font-specification:'Avenir, Ultra-Bold';font-variant-ligatures:normal;font-variant-caps:normal;font-variant-numeric:normal;font-variant-east-asian:normal;fill:#ffffff;stroke-width:0.127926"
       d="m 139.15259,155.21443 c -0.11826,0 -0.23337,0.017 -0.34481,0.0511 -0.11144,0.0318 -0.21009,0.0807 -0.29651,0.14667 -0.0841,0.066 -0.15248,0.14796 -0.20479,0.24575 -0.05,0.0978 -0.0749,0.21133 -0.0749,0.34096 0,0.13419 0.027,0.24229 0.0816,0.32417 0.0569,0.0819 0.12765,0.14775 0.21179,0.19778 0.0841,0.05 0.17491,0.0898 0.2727,0.11938 0.0978,0.0295 0.18891,0.0593 0.27306,0.0889 0.0841,0.0296 0.15335,0.0657 0.20794,0.10887 0.0568,0.0409 0.0854,0.0981 0.0854,0.17083 0,0.0432 -0.0115,0.0805 -0.0343,0.11238 -0.0205,0.0318 -0.0487,0.058 -0.0851,0.0784 -0.0341,0.0205 -0.0739,0.0366 -0.11937,0.048 -0.0432,0.009 -0.0867,0.0136 -0.12988,0.0136 -0.0887,0 -0.1749,-0.0195 -0.25905,-0.0581 -0.0819,-0.0409 -0.1502,-0.0977 -0.20478,-0.17048 l -0.37878,0.41623 c 0.11599,0.10689 0.2411,0.18398 0.37527,0.23174 0.13419,0.0478 0.27996,0.0718 0.43689,0.0718 0.12508,0 0.24317,-0.0158 0.35461,-0.0476 0.11372,-0.0318 0.21272,-0.0807 0.29686,-0.14668 0.0864,-0.066 0.15476,-0.14919 0.20479,-0.24925 0.05,-0.10007 0.0749,-0.21728 0.0749,-0.35147 0,-0.141 -0.0273,-0.25331 -0.0819,-0.33746 -0.0546,-0.0842 -0.1238,-0.15125 -0.20794,-0.20129 -0.0819,-0.05 -0.17053,-0.0889 -0.26605,-0.11622 -0.0955,-0.0273 -0.1854,-0.0543 -0.26955,-0.0816 -0.0819,-0.0273 -0.15021,-0.0604 -0.20479,-0.0991 -0.0546,-0.0387 -0.0819,-0.0946 -0.0819,-0.16733 0,-0.0455 0.0115,-0.084 0.0343,-0.11588 0.0227,-0.0318 0.0522,-0.0567 0.0886,-0.0749 0.0364,-0.0205 0.0749,-0.0353 0.11587,-0.0445 0.0409,-0.009 0.0807,-0.0137 0.11937,-0.0137 0.066,0 0.13551,0.0137 0.20829,0.041 0.075,0.025 0.13426,0.0648 0.17748,0.11937 l 0.36477,-0.39908 c -0.10234,-0.091 -0.2171,-0.15563 -0.34446,-0.19428 -0.12736,-0.0387 -0.25912,-0.0581 -0.39558,-0.0581 z m 3.32633,0 c -0.18876,0 -0.36275,0.0294 -0.52195,0.0886 -0.1592,0.0591 -0.29674,0.14446 -0.41273,0.2559 -0.11598,0.10916 -0.20709,0.24215 -0.27305,0.39908 -0.0637,0.15692 -0.0956,0.33214 -0.0956,0.52545 0,0.19331 0.0319,0.36852 0.0956,0.52544 0.066,0.15693 0.15707,0.29114 0.27305,0.40258 0.11599,0.10916 0.25353,0.19327 0.41273,0.2524 0.1592,0.0591 0.33319,0.0886 0.52195,0.0886 0.18876,0 0.36275,-0.0294 0.52195,-0.0886 0.1592,-0.0591 0.29674,-0.14324 0.41273,-0.2524 0.11598,-0.11144 0.20587,-0.24565 0.26955,-0.40258 0.0659,-0.15692 0.0987,-0.33213 0.0987,-0.52544 0,-0.19331 -0.0328,-0.36853 -0.0987,-0.52545 -0.0637,-0.15693 -0.15357,-0.28992 -0.26955,-0.39908 -0.11599,-0.11144 -0.25353,-0.19677 -0.41273,-0.2559 -0.1592,-0.0591 -0.33319,-0.0886 -0.52195,-0.0886 z m -17.7235,0.0613 v 2.41545 h 1.51789 v -0.49149 h -0.98579 v -1.92396 z m 1.19863,0 -0.2524,0.96198 h 0.43653 l 0.30701,-0.96198 z m 0.89337,0 v 2.41545 h 1.70237 v -0.49149 h -1.17027 v -0.49114 h 1.0474 v -0.49114 h -1.0474 v -0.45054 h 1.10866 v -0.49114 z m 1.93376,0 0.7985,1.15312 -0.84611,1.26233 h 0.63117 l 0.57306,-0.97248 0.59021,0.97248 h 0.66863 l -0.87342,-1.27249 0.781,-1.14296 h -0.64447 l -0.49464,0.84611 -0.5153,-0.84611 z m 2.44136,0 v 0.47084 h 0.68928 v 1.94461 h 0.53211 v -1.94461 h 0.68893 v -0.47084 z m 2.20122,0 v 2.41545 h 1.70237 v -0.49149 h -1.17027 v -0.49114 h 1.0474 v -0.49114 h -1.0474 v -0.45054 h 1.10866 v -0.49114 z m 2.13155,0 v 2.41545 h 0.5321 v -1.71952 h 0.007 l 1.05405,1.71952 h 0.69593 v -2.41545 h -0.5321 v 1.67856 h -0.007 l -1.02674,-1.67856 z m 4.73045,0 v 2.41545 h 0.5321 v -2.41545 z m 3.85808,0 v 2.41545 h 0.5321 v -1.71952 h 0.007 l 1.0544,1.71952 h 0.69593 v -2.41545 h -0.53245 v 1.67856 h -0.007 l -1.02675,-1.67856 z m -1.66492,0.42988 c 0.11371,0 0.21604,0.0195 0.30701,0.0581 0.0932,0.0387 0.17279,0.093 0.23874,0.16348 0.066,0.0682 0.11609,0.15023 0.15018,0.24575 0.0364,0.0955 0.0546,0.19907 0.0546,0.31051 0,0.11371 -0.0182,0.21813 -0.0546,0.31365 -0.0341,0.0933 -0.0842,0.17525 -0.15018,0.24575 -0.0659,0.0682 -0.1455,0.12167 -0.23874,0.16033 -0.091,0.0387 -0.1933,0.0581 -0.30701,0.0581 -0.11371,0 -0.21726,-0.0195 -0.31051,-0.0581 -0.091,-0.0387 -0.16929,-0.0921 -0.23524,-0.16033 -0.0659,-0.0705 -0.11728,-0.1525 -0.15368,-0.24575 -0.0341,-0.0955 -0.0511,-0.19994 -0.0511,-0.31365 0,-0.11144 0.017,-0.21499 0.0511,-0.31051 0.0364,-0.0955 0.0877,-0.17752 0.15368,-0.24575 0.066,-0.0705 0.14427,-0.12482 0.23524,-0.16348 0.0933,-0.0387 0.1968,-0.0581 0.31051,-0.0581 z" />
  </g>
</svg>
