<?xml version="1.0" encoding="UTF-8" standalone="no"?>
<svg
   xmlns:dc="http://purl.org/dc/elements/1.1/"
   xmlns:cc="http://creativecommons.org/ns#"
   xmlns:rdf="http://www.w3.org/1999/02/22-rdf-syntax-ns#"
   xmlns:svg="http://www.w3.org/2000/svg"
   xmlns="http://www.w3.org/2000/svg"
   xmlns:xlink="http://www.w3.org/1999/xlink"
   xmlns:sodipodi="http://sodipodi.sourceforge.net/DTD/sodipodi-0.dtd"
   xmlns:inkscape="http://www.inkscape.org/namespaces/inkscape"
   width="40.17347mm"
   height="15.875mm"
   viewBox="0 0 40.17347 15.875"
   version="1.1"
   id="svg8"
   inkscape:version="1.0.2 (e86c8708, 2021-01-15)"
   sodipodi:docname="addon-install.svg">
  <defs
     id="defs2"><linearGradient
   inkscape:collect="always"
   id="linearGradient1067">
  <stop
     style="stop-color:#df0f64;stop-opacity:1"
     offset="0"
     id="stop1063" />
  <stop
     style="stop-color:#ffe746;stop-opacity:1"
     offset="1"
     id="stop1065" />
</linearGradient>
<linearGradient
   id="a"
   x1="70.790001"
   x2="6.447"
   y1="12.39"
   y2="74.470001"
   gradientTransform="translate(-1.3,-0.004086)"
   gradientUnits="userSpaceOnUse">
  <stop
     stop-color="#fff44f"
     offset=".048"
     id="stop835" />
  <stop
     stop-color="#ffe847"
     offset=".111"
     id="stop837" />
  <stop
     stop-color="#ffc830"
     offset=".225"
     id="stop839" />
  <stop
     stop-color="#ff980e"
     offset=".368"
     id="stop841" />
  <stop
     stop-color="#ff8b16"
     offset=".401"
     id="stop843" />
  <stop
     stop-color="#ff672a"
     offset=".462"
     id="stop845" />
  <stop
     stop-color="#ff3647"
     offset=".534"
     id="stop847" />
  <stop
     stop-color="#e31587"
     offset=".705"
     id="stop849" />
</linearGradient>
<radialGradient
   id="b"
   cx="-7907"
   cy="-8515"
   r="80.800003"
   gradientTransform="translate(7974,8524)"
   gradientUnits="userSpaceOnUse">
  <stop
     stop-color="#ffbd4f"
     offset=".129"
     id="stop852" />
  <stop
     stop-color="#ffac31"
     offset=".186"
     id="stop854" />
  <stop
     stop-color="#ff9d17"
     offset=".247"
     id="stop856" />
  <stop
     stop-color="#ff980e"
     offset=".283"
     id="stop858" />
  <stop
     stop-color="#ff563b"
     offset=".403"
     id="stop860" />
  <stop
     stop-color="#ff3750"
     offset=".467"
     id="stop862" />
  <stop
     stop-color="#f5156c"
     offset=".71"
     id="stop864" />
  <stop
     stop-color="#eb0878"
     offset=".782"
     id="stop866" />
  <stop
     stop-color="#e50080"
     offset=".86"
     id="stop868" />
</radialGradient>
<radialGradient
   id="c"
   cx="-7937"
   cy="-8482"
   r="80.800003"
   gradientTransform="translate(7974,8524)"
   gradientUnits="userSpaceOnUse">
  <stop
     stop-color="#960e18"
     offset=".3"
     id="stop871" />
  <stop
     stop-color="#b11927"
     stop-opacity=".74"
     offset=".351"
     id="stop873" />
  <stop
     stop-color="#db293d"
     stop-opacity=".343"
     offset=".435"
     id="stop875" />
  <stop
     stop-color="#f5334b"
     stop-opacity=".094"
     offset=".497"
     id="stop877" />
  <stop
     stop-color="#ff3750"
     stop-opacity="0"
     offset=".53"
     id="stop879" />
</radialGradient>
<radialGradient
   id="d"
   cx="-7927"
   cy="-8533"
   r="58.529999"
   gradientTransform="translate(7974,8524)"
   gradientUnits="userSpaceOnUse">
  <stop
     stop-color="#fff44f"
     offset=".132"
     id="stop882" />
  <stop
     stop-color="#ffdc3e"
     offset=".252"
     id="stop884" />
  <stop
     stop-color="#ff9d12"
     offset=".506"
     id="stop886" />
  <stop
     stop-color="#ff980e"
     offset=".526"
     id="stop888" />
</radialGradient>
<radialGradient
   id="e"
   cx="-7946"
   cy="-8461"
   r="38.470001"
   gradientTransform="translate(7974,8524)"
   gradientUnits="userSpaceOnUse">
  <stop
     stop-color="#3a8ee6"
     offset=".353"
     id="stop891" />
  <stop
     stop-color="#5c79f0"
     offset=".472"
     id="stop893" />
  <stop
     stop-color="#9059ff"
     offset=".669"
     id="stop895" />
  <stop
     stop-color="#c139e6"
     offset="1"
     id="stop897" />
</radialGradient>
<radialGradient
   id="f"
   cx="-7936"
   cy="-8492"
   r="20.4"
   gradientTransform="matrix(0.972,-0.235,0.275,1.138,10090,7834)"
   gradientUnits="userSpaceOnUse">
  <stop
     stop-color="#9059ff"
     stop-opacity="0"
     offset=".206"
     id="stop900" />
  <stop
     stop-color="#8c4ff3"
     stop-opacity=".064"
     offset=".278"
     id="stop902" />
  <stop
     stop-color="#7716a8"
     stop-opacity=".45"
     offset=".747"
     id="stop904" />
  <stop
     stop-color="#6e008b"
     stop-opacity=".6"
     offset=".975"
     id="stop906" />
</radialGradient>
<radialGradient
   id="g"
   cx="-7938"
   cy="-8518"
   r="27.68"
   gradientTransform="translate(7974,8524)"
   gradientUnits="userSpaceOnUse">
  <stop
     stop-color="#ffe226"
     offset="0"
     id="stop909" />
  <stop
     stop-color="#ffdb27"
     offset=".121"
     id="stop911" />
  <stop
     stop-color="#ffc82a"
     offset=".295"
     id="stop913" />
  <stop
     stop-color="#ffa930"
     offset=".502"
     id="stop915" />
  <stop
     stop-color="#ff7e37"
     offset=".732"
     id="stop917" />
  <stop
     stop-color="#ff7139"
     offset=".792"
     id="stop919" />
</radialGradient>
<radialGradient
   id="h"
   cx="-7916"
   cy="-8536"
   r="118.1"
   gradientTransform="translate(7974,8524)"
   gradientUnits="userSpaceOnUse">
  <stop
     stop-color="#fff44f"
     offset=".113"
     id="stop922" />
  <stop
     stop-color="#ff980e"
     offset=".456"
     id="stop924" />
  <stop
     stop-color="#ff5634"
     offset=".622"
     id="stop926" />
  <stop
     stop-color="#ff3647"
     offset=".716"
     id="stop928" />
  <stop
     stop-color="#e31587"
     offset=".904"
     id="stop930" />
</radialGradient>
<radialGradient
   id="i"
   cx="-7927"
   cy="-8523"
   r="86.5"
   gradientTransform="matrix(0.105,0.995,-0.653,0.069,-4685,8470)"
   gradientUnits="userSpaceOnUse">
  <stop
     stop-color="#fff44f"
     offset="0"
     id="stop933" />
  <stop
     stop-color="#ffe847"
     offset=".06"
     id="stop935" />
  <stop
     stop-color="#ffc830"
     offset=".168"
     id="stop937" />
  <stop
     stop-color="#ff980e"
     offset=".304"
     id="stop939" />
  <stop
     stop-color="#ff8b16"
     offset=".356"
     id="stop941" />
  <stop
     stop-color="#ff672a"
     offset=".455"
     id="stop943" />
  <stop
     stop-color="#ff3647"
     offset=".57"
     id="stop945" />
  <stop
     stop-color="#e31587"
     offset=".737"
     id="stop947" />
</radialGradient>
<radialGradient
   id="j"
   cx="-7938"
   cy="-8508"
   r="73.720001"
   gradientTransform="translate(7974,8524)"
   gradientUnits="userSpaceOnUse">
  <stop
     stop-color="#fff44f"
     offset=".137"
     id="stop950" />
  <stop
     stop-color="#ff980e"
     offset=".48"
     id="stop952" />
  <stop
     stop-color="#ff5634"
     offset=".592"
     id="stop954" />
  <stop
     stop-color="#ff3647"
     offset=".655"
     id="stop956" />
  <stop
     stop-color="#e31587"
     offset=".904"
     id="stop958" />
</radialGradient>
<radialGradient
   id="k"
   cx="-7919"
   cy="-8504"
   r="80.690002"
   gradientTransform="translate(7974,8524)"
   gradientUnits="userSpaceOnUse">
  <stop
     stop-color="#fff44f"
     offset=".094"
     id="stop961" />
  <stop
     stop-color="#ffe141"
     offset=".231"
     id="stop963" />
  <stop
     stop-color="#ffaf1e"
     offset=".509"
     id="stop965" />
  <stop
     stop-color="#ff980e"
     offset=".626"
     id="stop967" />
</radialGradient>
<linearGradient
   id="l"
   x1="70.010002"
   x2="15.27"
   y1="12.06"
   y2="66.809998"
   gradientTransform="translate(-1.3,-0.004086)"
   gradientUnits="userSpaceOnUse">
  <stop
     stop-color="#fff44f"
     stop-opacity=".8"
     offset=".167"
     id="stop970" />
  <stop
     stop-color="#fff44f"
     stop-opacity=".634"
     offset=".266"
     id="stop972" />
  <stop
     stop-color="#fff44f"
     stop-opacity=".217"
     offset=".489"
     id="stop974" />
  <stop
     stop-color="#fff44f"
     stop-opacity="0"
     offset=".6"
     id="stop976" />
</linearGradient>
<filter
   style="color-interpolation-filters:sRGB"
   inkscape:label="Drop Shadow"
   id="filter1452">
  <feFlood
     flood-opacity="0.980392"
     flood-color="rgb(33,21,81)"
     result="flood"
     id="feFlood1442" />
  <feComposite
     in="flood"
     in2="SourceGraphic"
     operator="in"
     result="composite1"
     id="feComposite1444" />
  <feGaussianBlur
     in="composite1"
     stdDeviation="8"
     result="blur"
     id="feGaussianBlur1446" />
  <feOffset
     dx="0"
     dy="3.29341"
     result="offset"
     id="feOffset1448" />
  <feComposite
     in="SourceGraphic"
     in2="offset"
     operator="over"
     result="composite2"
     id="feComposite1450" />
</filter>

	

		
	
	

		
	<linearGradient
   inkscape:collect="always"
   xlink:href="#linearGradient1067"
   id="linearGradient1069"
   x1="350.45898"
   y1="-62.138672"
   x2="350.45898"
   y2="71.098152"
   gradientUnits="userSpaceOnUse"
   gradientTransform="matrix(0.10307122,0,0,0.10307122,78.873723,155.20495)" />
<filter
   inkscape:collect="always"
   style="color-interpolation-filters:sRGB"
   id="filter1195"
   x="-0.096710304"
   width="1.1934206"
   y="-0.1045885"
   height="1.209177">
  <feGaussianBlur
     inkscape:collect="always"
     stdDeviation="0.54739443"
     id="feGaussianBlur1197" />
</filter>
<filter
   inkscape:collect="always"
   style="color-interpolation-filters:sRGB"
   id="filter1319"
   x="-0.022076216"
   width="1.0441524"
   y="-0.023874585"
   height="1.0477492">
  <feGaussianBlur
     inkscape:collect="always"
     stdDeviation="0.1249546"
     id="feGaussianBlur1321" />
</filter>
</defs>
  <sodipodi:namedview
     id="base"
     pagecolor="#ffffff"
     bordercolor="#666666"
     borderopacity="1.0"
     inkscape:pageopacity="0.0"
     inkscape:pageshadow="2"
     inkscape:zoom="1.6596774"
     inkscape:cx="246.37515"
     inkscape:cy="17.541348"
     inkscape:document-units="mm"
     inkscape:current-layer="layer1"
     inkscape:document-rotation="0"
     showgrid="false"
     fit-margin-top="0"
     fit-margin-left="0"
     fit-margin-right="0"
     fit-margin-bottom="0"
     inkscape:window-width="1818"
     inkscape:window-height="943"
     inkscape:window-x="0"
     inkscape:window-y="25"
     inkscape:window-maximized="0"
     showguides="true"
     inkscape:guide-bbox="true" />
  <metadata
     id="metadata5">
    <rdf:RDF>
      <cc:Work
         rdf:about="">
        <dc:format>image/svg+xml</dc:format>
        <dc:type
           rdf:resource="http://purl.org/dc/dcmitype/StillImage" />
        <dc:title />
      </cc:Work>
    </rdf:RDF>
  </metadata>
  <g
     inkscape:label="Layer 1"
     inkscape:groupmode="layer"
     id="layer1"
     transform="translate(-107.92634,-147.1433)">
    <rect
       style="fill:#6364ff;fill-opacity:1;stroke-width:0.179234"
       id="rect1104"
       width="40.17347"
       height="15.875"
       x="107.92634"
       y="147.1433"
       ry="1.0583333" />
    <path
       id="path1687"
       style="font-style:normal;font-variant:normal;font-weight:normal;font-stretch:normal;font-size:4.03226px;line-height:1.25;font-family:Avenir;-inkscape-font-specification:'Avenir, Normal';font-variant-ligatures:normal;font-variant-caps:normal;font-variant-numeric:normal;font-variant-east-asian:normal;fill:#ffffff;stroke-width:0.116596"
       d="m 128.10766,152.409 c -0.0783,0 -0.15464,0.011 -0.2293,0.0329 -0.0747,0.0219 -0.14224,0.0556 -0.20234,0.10117 -0.0583,0.0455 -0.10537,0.10269 -0.14177,0.17188 -0.0346,0.0692 -0.0518,0.15042 -0.0518,0.2433 0,0.0892 0.0136,0.16395 0.041,0.22404 0.0291,0.0583 0.0665,0.10732 0.11203,0.14738 0.0473,0.0382 0.1,0.0701 0.15822,0.0956 0.0601,0.0255 0.12118,0.0482 0.18309,0.0683 0.0637,0.02 0.12481,0.0402 0.18308,0.0602 0.0601,0.02 0.11271,0.0454 0.15823,0.0763 0.0473,0.0291 0.0847,0.0665 0.11202,0.11202 0.0291,0.0437 0.0438,0.0992 0.0438,0.16663 0,0.0564 -0.0127,0.10646 -0.0382,0.15018 -0.0255,0.0437 -0.0583,0.0811 -0.0984,0.11202 -0.0382,0.0291 -0.0821,0.0519 -0.13128,0.0683 -0.0492,0.0146 -0.0982,0.0221 -0.14737,0.0221 -0.10198,0 -0.19034,-0.0212 -0.26501,-0.063 -0.0747,-0.0437 -0.13281,-0.10086 -0.17468,-0.17188 l -0.17748,0.12848 c 0.0747,0.10197 0.16463,0.17571 0.27025,0.22124 0.10744,0.0437 0.2205,0.0655 0.33886,0.0655 0.0765,0 0.15184,-0.0126 0.2265,-0.0382 0.0765,-0.0255 0.14469,-0.0619 0.20479,-0.10922 0.0619,-0.0473 0.11132,-0.10584 0.14772,-0.17503 0.0382,-0.071 0.0574,-0.15029 0.0574,-0.2377 0,-0.11654 -0.0247,-0.20847 -0.0739,-0.27585 -0.0492,-0.0674 -0.11024,-0.12097 -0.18309,-0.16103 -0.0728,-0.0419 -0.15273,-0.0747 -0.24014,-0.0984 -0.0856,-0.0255 -0.16485,-0.0538 -0.23769,-0.0847 -0.0728,-0.031 -0.13392,-0.0699 -0.18309,-0.11728 -0.0492,-0.0492 -0.0739,-0.11772 -0.0739,-0.20513 0,-0.0601 0.012,-0.11172 0.0357,-0.15543 0.0237,-0.0455 0.0545,-0.0822 0.0928,-0.10957 0.0401,-0.0291 0.0846,-0.0499 0.13373,-0.0627 0.0492,-0.0146 0.0992,-0.0217 0.15018,-0.0217 0.16389,0 0.28863,0.0627 0.37422,0.18834 l 0.17223,-0.13408 c -0.0765,-0.0874 -0.15932,-0.14814 -0.24855,-0.18273 -0.0892,-0.0346 -0.18864,-0.0522 -0.2979,-0.0522 z m -3.38409,0.0494 v 1.93377 h 0.19638 v -1.93377 z m 0.72008,0 v 1.93377 h 0.19674 v -1.65511 h 0.005 l 1.15277,1.65511 h 0.24574 v -1.93377 h -0.19638 v 1.63901 h -0.006 l -1.15276,-1.63901 z m 3.4198,0 v 0.18029 h 0.64727 v 1.75348 h 0.19674 v -1.75348 h 0.64727 v -0.18029 z m 2.18476,0 -0.84121,1.93377 h 0.22929 l 0.2132,-0.50795 h 0.98893 l 0.21284,0.50795 h 0.22964 l -0.8412,-1.93377 z m 1.29349,0 v 1.93377 h 1.09816 v -0.18028 h -0.90142 v -1.75349 z m 1.36596,0 v 1.93377 h 1.09816 v -0.18028 h -0.90142 v -1.75349 z m 1.36561,0 v 1.93377 h 1.23188 v -0.18028 h -1.03514 v -0.73479 h 0.93678 v -0.18029 h -0.93678 v -0.65812 h 1.00259 v -0.18029 z m 1.62186,0 v 1.93377 h 0.19673 v -0.89862 h 0.32767 l 0.53,0.89862 h 0.24049 l -0.5573,-0.91752 c 0.16025,-0.0146 0.2824,-0.0675 0.36617,-0.15858 0.0856,-0.0929 0.12812,-0.20656 0.12812,-0.34132 0,-0.173 -0.0572,-0.30229 -0.17188,-0.38787 -0.1129,-0.0856 -0.26787,-0.12848 -0.46454,-0.12848 z m 0.19673,0.18029 h 0.34972 c 0.0874,0 0.16115,0.009 0.22124,0.0273 0.0619,0.0164 0.11098,0.0401 0.14738,0.0711 0.0364,0.031 0.0627,0.0674 0.0791,0.10922 0.0164,0.0401 0.0248,0.083 0.0248,0.12847 0,0.0474 -0.008,0.0919 -0.0248,0.13373 -0.0164,0.0401 -0.0427,0.0755 -0.0791,0.10642 -0.0364,0.0291 -0.0855,0.0529 -0.14738,0.0711 -0.0601,0.0182 -0.13383,0.0273 -0.22124,0.0273 h -0.34972 z m -5.74808,0.049 0.41798,1.01624 h -0.83841 z" />
    <path
       id="path1716"
       style="font-style:normal;font-variant:normal;font-weight:800;font-stretch:normal;font-size:5.03584px;line-height:1.25;font-family:Avenir;-inkscape-font-specification:'Avenir, Ultra-Bold';font-variant-ligatures:normal;font-variant-caps:normal;font-variant-numeric:normal;font-variant-east-asian:normal;fill:#ffffff;stroke-width:0.127926"
       d="m 139.15259,155.21443 c -0.11826,0 -0.23337,0.017 -0.34481,0.0511 -0.11144,0.0318 -0.21009,0.0807 -0.29651,0.14667 -0.0841,0.066 -0.15248,0.14796 -0.20479,0.24575 -0.05,0.0978 -0.0749,0.21133 -0.0749,0.34096 0,0.13419 0.027,0.24229 0.0816,0.32417 0.0569,0.0819 0.12765,0.14775 0.21179,0.19778 0.0841,0.05 0.17491,0.0898 0.2727,0.11938 0.0978,0.0295 0.18891,0.0593 0.27306,0.0889 0.0841,0.0296 0.15335,0.0657 0.20794,0.10887 0.0568,0.0409 0.0854,0.0981 0.0854,0.17083 0,0.0432 -0.0115,0.0805 -0.0343,0.11238 -0.0205,0.0318 -0.0487,0.058 -0.0851,0.0784 -0.0341,0.0205 -0.0739,0.0366 -0.11937,0.048 -0.0432,0.009 -0.0867,0.0136 -0.12988,0.0136 -0.0887,0 -0.1749,-0.0195 -0.25905,-0.0581 -0.0819,-0.0409 -0.1502,-0.0977 -0.20478,-0.17048 l -0.37878,0.41623 c 0.11599,0.10689 0.2411,0.18398 0.37527,0.23174 0.13419,0.0478 0.27996,0.0718 0.43689,0.0718 0.12508,0 0.24317,-0.0158 0.35461,-0.0476 0.11372,-0.0318 0.21272,-0.0807 0.29686,-0.14668 0.0864,-0.066 0.15476,-0.14919 0.20479,-0.24925 0.05,-0.10007 0.0749,-0.21728 0.0749,-0.35147 0,-0.141 -0.0273,-0.25331 -0.0819,-0.33746 -0.0546,-0.0842 -0.1238,-0.15125 -0.20794,-0.20129 -0.0819,-0.05 -0.17053,-0.0889 -0.26605,-0.11622 -0.0955,-0.0273 -0.1854,-0.0543 -0.26955,-0.0816 -0.0819,-0.0273 -0.15021,-0.0604 -0.20479,-0.0991 -0.0546,-0.0387 -0.0819,-0.0946 -0.0819,-0.16733 0,-0.0455 0.0115,-0.084 0.0343,-0.11588 0.0227,-0.0318 0.0522,-0.0567 0.0886,-0.0749 0.0364,-0.0205 0.0749,-0.0353 0.11587,-0.0445 0.0409,-0.009 0.0807,-0.0137 0.11937,-0.0137 0.066,0 0.13551,0.0137 0.20829,0.041 0.075,0.025 0.13426,0.0648 0.17748,0.11937 l 0.36477,-0.39908 c -0.10234,-0.091 -0.2171,-0.15563 -0.34446,-0.19428 -0.12736,-0.0387 -0.25912,-0.0581 -0.39558,-0.0581 z m 3.32633,0 c -0.18876,0 -0.36275,0.0294 -0.52195,0.0886 -0.1592,0.0591 -0.29674,0.14446 -0.41273,0.2559 -0.11598,0.10916 -0.20709,0.24215 -0.27305,0.39908 -0.0637,0.15692 -0.0956,0.33214 -0.0956,0.52545 0,0.19331 0.0319,0.36852 0.0956,0.52544 0.066,0.15693 0.15707,0.29114 0.27305,0.40258 0.11599,0.10916 0.25353,0.19327 0.41273,0.2524 0.1592,0.0591 0.33319,0.0886 0.52195,0.0886 0.18876,0 0.36275,-0.0294 0.52195,-0.0886 0.1592,-0.0591 0.29674,-0.14324 0.41273,-0.2524 0.11598,-0.11144 0.20587,-0.24565 0.26955,-0.40258 0.0659,-0.15692 0.0987,-0.33213 0.0987,-0.52544 0,-0.19331 -0.0328,-0.36853 -0.0987,-0.52545 -0.0637,-0.15693 -0.15357,-0.28992 -0.26955,-0.39908 -0.11599,-0.11144 -0.25353,-0.19677 -0.41273,-0.2559 -0.1592,-0.0591 -0.33319,-0.0886 -0.52195,-0.0886 z m -17.7235,0.0613 v 2.41545 h 1.51789 v -0.49149 h -0.98579 v -1.92396 z m 1.19863,0 -0.2524,0.96198 h 0.43653 l 0.30701,-0.96198 z m 0.89337,0 v 2.41545 h 1.70237 v -0.49149 h -1.17027 v -0.49114 h 1.0474 v -0.49114 h -1.0474 v -0.45054 h 1.10866 v -0.49114 z m 1.93376,0 0.7985,1.15312 -0.84611,1.26233 h 0.63117 l 0.57306,-0.97248 0.59021,0.97248 h 0.66863 l -0.87342,-1.27249 0.781,-1.14296 h -0.64447 l -0.49464,0.84611 -0.5153,-0.84611 z m 2.44136,0 v 0.47084 h 0.68928 v 1.94461 h 0.53211 v -1.94461 h 0.68893 v -0.47084 z m 2.20122,0 v 2.41545 h 1.70237 v -0.49149 h -1.17027 v -0.49114 h 1.0474 v -0.49114 h -1.0474 v -0.45054 h 1.10866 v -0.49114 z m 2.13155,0 v 2.41545 h 0.5321 v -1.71952 h 0.007 l 1.05405,1.71952 h 0.69593 v -2.41545 h -0.5321 v 1.67856 h -0.007 l -1.02674,-1.67856 z m 4.73045,0 v 2.41545 h 0.5321 v -2.41545 z m 3.85808,0 v 2.41545 h 0.5321 v -1.71952 h 0.007 l 1.0544,1.71952 h 0.69593 v -2.41545 h -0.53245 v 1.67856 h -0.007 l -1.02675,-1.67856 z m -1.66492,0.42988 c 0.11371,0 0.21604,0.0195 0.30701,0.0581 0.0932,0.0387 0.17279,0.093 0.23874,0.16348 0.066,0.0682 0.11609,0.15023 0.15018,0.24575 0.0364,0.0955 0.0546,0.19907 0.0546,0.31051 0,0.11371 -0.0182,0.21813 -0.0546,0.31365 -0.0341,0.0933 -0.0842,0.17525 -0.15018,0.24575 -0.0659,0.0682 -0.1455,0.12167 -0.23874,0.16033 -0.091,0.0387 -0.1933,0.0581 -0.30701,0.0581 -0.11371,0 -0.21726,-0.0195 -0.31051,-0.0581 -0.091,-0.0387 -0.16929,-0.0921 -0.23524,-0.16033 -0.0659,-0.0705 -0.11728,-0.1525 -0.15368,-0.24575 -0.0341,-0.0955 -0.0511,-0.19994 -0.0511,-0.31365 0,-0.11144 0.017,-0.21499 0.0511,-0.31051 0.0364,-0.0955 0.0877,-0.17752 0.15368,-0.24575 0.066,-0.0705 0.14427,-0.12482 0.23524,-0.16348 0.0933,-0.0387 0.1968,-0.0581 0.31051,-0.0581 z" />
    <path
       id="path1071"
       style="fill:#000080;fill-opacity:1;stroke-width:0.0277649;filter:url(#filter1195)"
       d="m 115.3148,149.11908 c -1.00598,0 -1.82146,0.81623 -1.82146,1.82227 0,0.31993 0.0826,0.62164 0.22748,0.88335 0.0572,0.10337 0.0554,0.2292 -0.005,0.33096 -0.0601,0.10176 -0.16936,0.16387 -0.28747,0.16387 h -2.65831 c -0.33407,0 -0.61118,0.26859 -0.61118,0.60252 v 2.11678 c 0,0.11748 0.0618,0.22627 0.16265,0.28647 0.10087,0.0602 0.22604,0.0629 0.32935,0.007 0.2573,-0.13916 0.55178,-0.21811 0.86483,-0.21802 1.00617,-1.4e-4 1.82187,0.8156 1.82187,1.82166 0,1.00614 -0.8157,1.82194 -1.82187,1.82166 -0.31308,0 -0.60753,-0.0791 -0.86483,-0.21822 -0.10343,-0.0559 -0.22857,-0.0534 -0.32955,0.007 -0.10095,0.0603 -0.16266,0.16913 -0.16266,0.28666 v 2.24241 c 0,0.33409 0.27709,0.60473 0.61118,0.60473 h 2.79038 c 0.0789,-0.0253 0.147,-0.0788 0.18883,-0.15319 0.0591,-0.10515 0.0568,-0.23422 -0.006,-0.3372 -0.1669,-0.27373 -0.263,-0.59499 -0.26292,-0.94032 -1.4e-4,-1.00615 0.81581,-1.82149 1.82187,-1.82147 1.00615,0 1.82174,0.81527 1.82146,1.82147 0,0.34525 -0.096,0.66664 -0.26291,0.94032 -0.0628,0.10298 -0.0649,0.23196 -0.006,0.33699 0.0418,0.0743 0.11,0.128 0.18883,0.1534 h 2.81594 c 0.33393,0 0.6148,-0.27064 0.6148,-0.60473 v -2.29555 c 0,-0.12056 0.0651,-0.23179 0.17011,-0.2909 0.10503,-0.0591 0.23381,-0.0571 0.33679,0.006 0.27368,0.16689 0.59507,0.26311 0.94033,0.26311 1.0062,2.8e-4 1.82166,-0.81552 1.82166,-1.82166 3e-5,-1.00606 -0.81532,-1.8218 -1.82146,-1.82166 -0.34534,-9e-5 -0.6668,0.096 -0.94053,0.26291 -0.10298,0.0628 -0.23185,0.065 -0.33699,0.006 -0.10515,-0.0591 -0.16991,-0.17026 -0.16991,-0.2909 v -2.17013 c 0,-0.33393 -0.28079,-0.60252 -0.6148,-0.60252 H 117.201 c -0.11806,0 -0.22748,-0.0624 -0.28748,-0.16407 -0.06,-0.10168 -0.0619,-0.22744 -0.005,-0.33076 0.14493,-0.26179 0.22748,-0.56356 0.22748,-0.88355 0,-1.00601 -0.81557,-1.82207 -1.82186,-1.82207 z" />
    <path
       id="path1018"
       style="fill:url(#linearGradient1069);fill-opacity:1;stroke-width:0.0277649"
       d="m 114.99596,148.80024 c -1.00598,0 -1.82146,0.81623 -1.82146,1.82227 0,0.31993 0.0826,0.62164 0.22748,0.88335 0.0572,0.10337 0.0554,0.2292 -0.005,0.33096 -0.0601,0.10176 -0.16936,0.16387 -0.28747,0.16387 h -2.65831 c -0.33407,0 -0.61118,0.26859 -0.61118,0.60252 v 2.11678 c 0,0.11748 0.0618,0.22627 0.16265,0.28647 0.10087,0.0602 0.22604,0.0629 0.32935,0.007 0.2573,-0.13916 0.55178,-0.21811 0.86483,-0.21802 1.00617,-1.4e-4 1.82187,0.8156 1.82187,1.82166 0,1.00614 -0.8157,1.82194 -1.82187,1.82166 -0.31308,0 -0.60753,-0.0791 -0.86483,-0.21822 -0.10343,-0.0559 -0.22857,-0.0534 -0.32955,0.007 -0.10095,0.0603 -0.16266,0.16913 -0.16266,0.28666 v 2.24241 c 0,0.33409 0.27709,0.60473 0.61118,0.60473 h 2.79038 c 0.0789,-0.0253 0.147,-0.0788 0.18883,-0.15319 0.0591,-0.10515 0.0568,-0.23422 -0.006,-0.3372 -0.1669,-0.27373 -0.263,-0.59499 -0.26292,-0.94032 -1.4e-4,-1.00615 0.81581,-1.82149 1.82187,-1.82147 1.00615,0 1.82174,0.81527 1.82146,1.82147 0,0.34525 -0.096,0.66664 -0.26291,0.94032 -0.0628,0.10298 -0.0649,0.23196 -0.006,0.33699 0.0418,0.0743 0.11,0.128 0.18883,0.1534 h 2.81594 c 0.33393,0 0.6148,-0.27064 0.6148,-0.60473 v -2.29555 c 0,-0.12056 0.0651,-0.23179 0.17011,-0.2909 0.10503,-0.0591 0.23381,-0.0571 0.33679,0.006 0.27368,0.16689 0.59507,0.26311 0.94033,0.26311 1.0062,2.8e-4 1.82166,-0.81552 1.82166,-1.82166 3e-5,-1.00606 -0.81532,-1.8218 -1.82146,-1.82166 -0.34534,-9e-5 -0.6668,0.096 -0.94053,0.26291 -0.10298,0.0628 -0.23185,0.065 -0.33699,0.006 -0.10515,-0.0591 -0.16991,-0.17026 -0.16991,-0.2909 v -2.17013 c 0,-0.33393 -0.28079,-0.60252 -0.6148,-0.60252 h -2.65831 c -0.11806,0 -0.22748,-0.0624 -0.28748,-0.16407 -0.06,-0.10168 -0.0619,-0.22744 -0.005,-0.33076 0.14493,-0.26179 0.22748,-0.56356 0.22748,-0.88355 0,-1.00601 -0.81557,-1.82207 -1.82186,-1.82207 z" />
    <path
       id="path1199"
       style="fill:none;fill-opacity:1;stroke:#ffffff;stroke-width:0.128;stroke-miterlimit:4;stroke-dasharray:none;filter:url(#filter1319)"
       d="m 114.99596,148.80024 c -1.00598,0 -1.82146,0.81623 -1.82146,1.82227 0,0.31993 0.0826,0.62164 0.22748,0.88335 0.0572,0.10337 0.0554,0.2292 -0.005,0.33096 -0.0601,0.10176 -0.16936,0.16387 -0.28747,0.16387 h -2.65831 c -0.33407,0 -0.61118,0.26859 -0.61118,0.60252 v 2.11678 c 0,0.11748 0.0618,0.22627 0.16265,0.28647 0.10087,0.0602 0.22604,0.0629 0.32935,0.007 0.2573,-0.13916 0.55178,-0.21811 0.86483,-0.21802 1.00617,-1.4e-4 1.82187,0.8156 1.82187,1.82166 0,1.00614 -0.8157,1.82194 -1.82187,1.82166 -0.31308,0 -0.60753,-0.0791 -0.86483,-0.21822 -0.10343,-0.0559 -0.22857,-0.0534 -0.32955,0.007 -0.10095,0.0603 -0.16266,0.16913 -0.16266,0.28666 v 2.24241 c 0,0.33409 0.27709,0.60473 0.61118,0.60473 h 2.79038 c 0.0789,-0.0253 0.147,-0.0788 0.18883,-0.15319 0.0591,-0.10515 0.0568,-0.23422 -0.006,-0.3372 -0.1669,-0.27373 -0.263,-0.59499 -0.26292,-0.94032 -1.4e-4,-1.00615 0.81581,-1.82149 1.82187,-1.82147 1.00615,0 1.82174,0.81527 1.82146,1.82147 0,0.34525 -0.096,0.66664 -0.26291,0.94032 -0.0628,0.10298 -0.0649,0.23196 -0.006,0.33699 0.0418,0.0743 0.11,0.128 0.18883,0.1534 h 2.81594 c 0.33393,0 0.6148,-0.27064 0.6148,-0.60473 v -2.29555 c 0,-0.12056 0.0651,-0.23179 0.17011,-0.2909 0.10503,-0.0591 0.23381,-0.0571 0.33679,0.006 0.27368,0.16689 0.59507,0.26311 0.94033,0.26311 1.0062,2.8e-4 1.82166,-0.81552 1.82166,-1.82166 3e-5,-1.00606 -0.81532,-1.8218 -1.82146,-1.82166 -0.34534,-9e-5 -0.6668,0.096 -0.94053,0.26291 -0.10298,0.0628 -0.23185,0.065 -0.33699,0.006 -0.10515,-0.0591 -0.16991,-0.17026 -0.16991,-0.2909 v -2.17013 c 0,-0.33393 -0.28079,-0.60252 -0.6148,-0.60252 h -2.65831 c -0.11806,0 -0.22748,-0.0624 -0.28748,-0.16407 -0.06,-0.10168 -0.0619,-0.22744 -0.005,-0.33076 0.14493,-0.26179 0.22748,-0.56356 0.22748,-0.88355 0,-1.00601 -0.81557,-1.82207 -1.82186,-1.82207 z" />
  </g>
</svg>
